Coordinates
version=1
nRows=17
nColumns=38
inDegrees=no

Units are S.I. units (second, meters, Newtons, ...)
If the header above contains a line with 'inDegrees', this indicates whether rotational values are in degrees (yes) or radians (no).

endheader
time	pelvis_tilt	pelvis_list	pelvis_rotation	pelvis_tx	pelvis_ty	pelvis_tz	hip_flexion_r	hip_adduction_r	hip_rotation_r	knee_angle_r	ankle_angle_r	subtalar_angle_r	mtp_angle_r	hip_flexion_l	hip_adduction_l	hip_rotation_l	knee_angle_l	ankle_angle_l	subtalar_angle_l	mtp_angle_l	lumbar_extension	lumbar_bending	lumbar_rotation	arm_flex_r	arm_add_r	arm_rot_r	elbow_flex_r	pro_sup_r	wrist_flex_r	wrist_dev_r	arm_flex_l	arm_add_l	arm_rot_l	elbow_flex_l	pro_sup_l	wrist_flex_l	wrist_dev_l
1.15	-2.49148	1.44059	-2.07305	0.594033	0.831468	0.934437	0.40136	-0.213956	-0.394775	0.249585	0.17024	0	0	-0.371493	0.0670217	-0.0316324	0.236709	0.315696	0	0	-0.199182	-0.0365116	-0.180711	-0.0979842	-0.140597	0.0286544	0.443226	1.18681	0	0	0.0977396	-0.255192	0.276325	0.664278	0.930274	0	0
1.16	-2.49384	1.44206	-2.06609	0.595172	0.843587	0.932842	0.401877	-0.212444	-0.397121	0.251611	0.177735	0	0	-0.374481	0.0596763	-0.0306689	0.254383	0.319205	0	0	-0.197291	-0.0343622	-0.185174	-0.102147	-0.140434	0.0403637	0.443895	1.16032	0	0	0.097881	-0.255369	0.283023	0.666236	0.92976	0	0
1.17	-2.50926	1.44354	-2.04534	0.59633	0.856042	0.931396	0.40077	-0.209709	-0.396557	0.258794	0.180997	0	0	-0.376853	0.0496949	-0.0311194	0.275268	0.323091	0	0	-0.195535	-0.0305156	-0.189566	-0.105531	-0.138368	0.0369936	0.440725	1.16301	0	0	0.0971249	-0.255616	0.290967	0.668221	0.932888	0	0
1.18	-2.51675	1.44551	-2.03248	0.597439	0.86881	0.929891	0.40371	-0.21009	-0.398341	0.278809	0.182587	0	0	-0.377688	0.0402098	-0.0298952	0.297418	0.325512	0	0	-0.191771	-0.0273422	-0.194039	-0.109906	-0.136589	0.0349206	0.437381	1.16524	0	0	0.0942375	-0.25612	0.298776	0.670859	0.936746	0	0
1.19	-2.51351	1.44812	-2.0302	0.5985	0.881913	0.928328	0.409941	-0.213304	-0.402094	0.309288	0.180681	0	0	-0.376633	0.0315775	-0.0269537	0.320846	0.326124	0	0	-0.185626	-0.0251453	-0.198654	-0.115627	-0.135006	0.0331383	0.434518	1.16605	0	0	0.0894394	-0.256128	0.304795	0.673819	0.940923	0	0
1.2	-2.49995	1.45136	-2.03762	0.599514	0.895391	0.926704	0.417188	-0.218387	-0.407848	0.34486	0.175855	0	0	-0.373635	0.023556	-0.0222396	0.345809	0.324711	0	0	-0.176959	-0.023957	-0.203923	-0.122731	-0.13361	0.0312741	0.432353	1.1662	0	0	0.0820963	-0.256355	0.309453	0.677372	0.946591	0	0
1.21	-2.48198	1.4549	-2.04843	0.600512	0.909237	0.925094	0.422848	-0.223917	-0.415937	0.378826	0.16941	0	0	-0.369105	0.0152823	-0.016231	0.372566	0.320902	0	0	-0.166633	-0.023225	-0.210058	-0.131069	-0.132328	0.0292194	0.430785	1.16634	0	0	0.0729974	-0.256908	0.313282	0.681115	0.953374	0	0
1.22	-2.44746	1.45998	-2.0742	0.601428	0.923317	0.923357	0.430877	-0.232461	-0.431567	0.413053	0.158453	0	0	-0.359539	0.00717492	-0.00815878	0.403936	0.315119	0	0	-0.152759	-0.0236033	-0.218255	-0.141663	-0.133567	0.0443786	0.433295	1.13219	0	0	0.0612598	-0.257284	0.313103	0.685176	0.972141	0	0
1.23	-2.46778	1.46305	-2.04822	0.60274	0.937368	0.922433	0.428059	-0.230485	-0.437416	0.429028	0.12874	0	0	-0.354813	-0.00468803	-0.002977	0.434382	0.304509	0	0	-0.144932	-0.0191215	-0.222033	-0.149643	-0.13209	0.037425	0.431676	1.1376	0	0	0.0516229	-0.255668	0.311941	0.687263	0.977408	0	0
1.24	-2.50718	1.46721	-2.00531	0.604327	0.951185	0.92189	0.427731	-0.227041	-0.442656	0.448598	0.0958941	0	0	-0.346002	-0.0181071	0.000100087	0.470682	0.29007	0	0	-0.137698	-0.0123056	-0.223233	-0.156553	-0.130877	0.0306189	0.429811	1.14083	0	0	0.0423251	-0.252889	0.308826	0.688264	0.98476	0	0
1.25	-2.56149	1.47311	-1.95095	0.606234	0.964704	0.921717	0.433313	-0.22291	-0.444265	0.478625	0.077206	0	0	-0.331106	-0.0320218	-3.58493e-06	0.513975	0.270097	0	0	-0.129985	-0.00363042	-0.221072	-0.161604	-0.130309	0.0245317	0.426642	1.14463	0	0	0.0338794	-0.248467	0.303756	0.686188	0.997605	0	0
1.26	-2.62272	1.47878	-1.89331	0.608398	0.978041	0.921986	0.442021	-0.217891	-0.439087	0.514654	0.0727725	0	0	-0.312902	-0.0438115	-0.000772659	0.561161	0.242926	0	0	-0.122857	0.00489278	-0.215585	-0.165092	-0.130408	0.0215221	0.422687	1.14631	0	0	0.0254911	-0.243757	0.298786	0.683744	1.0108	0	0
1.27	-2.66823	1.48604	-1.85155	0.610462	0.991207	0.922365	0.453437	-0.213572	-0.43163	0.550487	0.0710393	0	0	-0.286777	-0.052742	0.00205421	0.615253	0.208393	0	0	-0.112554	0.011657	-0.211588	-0.169007	-0.135603	0.0509856	0.42299	1.09812	0	0	0.0145589	-0.239693	0.294138	0.683658	1.01721	0	0
1.28	-2.73596	1.4908	-1.78698	0.612424	1.00423	0.923339	0.455832	-0.2046	-0.422236	0.572411	0.0620591	0	0	-0.260672	-0.0610231	0.00860702	0.670833	0.168114	0	0	-0.105307	0.0191837	-0.20835	-0.169768	-0.138197	0.0618357	0.418496	1.08831	0	0	0.00419219	-0.236798	0.294981	0.684766	1.01046	0	0
1.29	-2.8008	1.49567	-1.72452	0.614292	1.017	0.92445	0.454307	-0.194171	-0.414709	0.584929	0.0503641	0	0	-0.229966	-0.0675729	0.0177217	0.730385	0.123601	0	0	-0.0975034	0.0258721	-0.206934	-0.169573	-0.140814	0.0731484	0.414556	1.08094	0	0	-0.00759932	-0.234536	0.295325	0.688194	1.00377	0	0
1.3	-2.86319	1.50013	-1.66444	0.616264	1.02949	0.925654	0.449016	-0.183092	-0.410671	0.590509	0.0422833	0	0	-0.196491	-0.0727678	0.0267578	0.791601	0.0765713	0	0	-0.0901737	0.0314589	-0.206195	-0.169005	-0.143043	0.0821045	0.412919	1.07605	0	0	-0.0200702	-0.233435	0.295217	0.693201	0.999499	0	0
1.31	-2.93476	1.5057	-1.59441	0.618317	1.04162	0.926759	0.441831	-0.17101	-0.410194	0.590327	0.0400154	0	0	-0.158219	-0.0781282	0.0357163	0.854918	0.0255961	0	0	-0.0818131	0.0369743	-0.206594	-0.167831	-0.144015	0.0823996	0.412202	1.08459	0	0	-0.033179	-0.233546	0.295837	0.700632	0.992498	0	0
